<?xml version="1.0" encoding="utf-8" standalone="no"?>
<!DOCTYPE svg PUBLIC "-//W3C//DTD SVG 1.1//EN"
  "http://www.w3.org/Graphics/SVG/1.1/DTD/svg11.dtd">
<svg xmlns:xlink="http://www.w3.org/1999/xlink" width="1080pt" height="360pt" viewBox="0 0 1080 360" xmlns="http://www.w3.org/2000/svg" version="1.1">
 <metadata>
  <rdf:RDF xmlns:dc="http://purl.org/dc/elements/1.1/" xmlns:cc="http://creativecommons.org/ns#" xmlns:rdf="http://www.w3.org/1999/02/22-rdf-syntax-ns#">
   <cc:Work>
    <dc:type rdf:resource="http://purl.org/dc/dcmitype/StillImage"/>
    <dc:date>2025-02-12T04:07:19.455071</dc:date>
    <dc:format>image/svg+xml</dc:format>
    <dc:creator>
     <cc:Agent>
      <dc:title>Matplotlib v3.7.5, https://matplotlib.org/</dc:title>
     </cc:Agent>
    </dc:creator>
   </cc:Work>
  </rdf:RDF>
 </metadata>
 <defs>
  <style type="text/css">*{stroke-linejoin: round; stroke-linecap: butt}</style>
 </defs>
 <g id="figure_1">
  <g id="patch_1">
   <path d="M 0 360 
L 1080 360 
L 1080 0 
L 0 0 
z
" style="fill: #ffffff"/>
  </g>
  <g id="axes_1">
   <g id="patch_2">
    <path d="M 135 320.4 
L 972 320.4 
L 972 43.2 
L 135 43.2 
z
" style="fill: #ffffff"/>
   </g>
   <g id="PolyCollection_1"/>
   <g id="PolyCollection_2"/>
   <g id="matplotlib.axis_1">
    <g id="xtick_1">
     <g id="line2d_1">
      <defs>
       <path id="mca3308b3b4" d="M 0 0 
L 0 3.5 
" style="stroke: #000000; stroke-width: 0.8"/>
      </defs>
      <g>
       <use xlink:href="#mca3308b3b4" x="173.045455" y="320.4" style="stroke: #000000; stroke-width: 0.8"/>
      </g>
     </g>
     <g id="text_1">
      <!-- 2013 -->
      <g transform="translate(160.320455 334.998438) scale(0.1 -0.1)">
       <defs>
        <path id="DejaVuSans-32" d="M 1228 531 
L 3431 531 
L 3431 0 
L 469 0 
L 469 531 
Q 828 903 1448 1529 
Q 2069 2156 2228 2338 
Q 2531 2678 2651 2914 
Q 2772 3150 2772 3378 
Q 2772 3750 2511 3984 
Q 2250 4219 1831 4219 
Q 1534 4219 1204 4116 
Q 875 4013 500 3803 
L 500 4441 
Q 881 4594 1212 4672 
Q 1544 4750 1819 4750 
Q 2544 4750 2975 4387 
Q 3406 4025 3406 3419 
Q 3406 3131 3298 2873 
Q 3191 2616 2906 2266 
Q 2828 2175 2409 1742 
Q 1991 1309 1228 531 
z
" transform="scale(0.015625)"/>
        <path id="DejaVuSans-30" d="M 2034 4250 
Q 1547 4250 1301 3770 
Q 1056 3291 1056 2328 
Q 1056 1369 1301 889 
Q 1547 409 2034 409 
Q 2525 409 2770 889 
Q 3016 1369 3016 2328 
Q 3016 3291 2770 3770 
Q 2525 4250 2034 4250 
z
M 2034 4750 
Q 2819 4750 3233 4129 
Q 3647 3509 3647 2328 
Q 3647 1150 3233 529 
Q 2819 -91 2034 -91 
Q 1250 -91 836 529 
Q 422 1150 422 2328 
Q 422 3509 836 4129 
Q 1250 4750 2034 4750 
z
" transform="scale(0.015625)"/>
        <path id="DejaVuSans-31" d="M 794 531 
L 1825 531 
L 1825 4091 
L 703 3866 
L 703 4441 
L 1819 4666 
L 2450 4666 
L 2450 531 
L 3481 531 
L 3481 0 
L 794 0 
L 794 531 
z
" transform="scale(0.015625)"/>
        <path id="DejaVuSans-33" d="M 2597 2516 
Q 3050 2419 3304 2112 
Q 3559 1806 3559 1356 
Q 3559 666 3084 287 
Q 2609 -91 1734 -91 
Q 1441 -91 1130 -33 
Q 819 25 488 141 
L 488 750 
Q 750 597 1062 519 
Q 1375 441 1716 441 
Q 2309 441 2620 675 
Q 2931 909 2931 1356 
Q 2931 1769 2642 2001 
Q 2353 2234 1838 2234 
L 1294 2234 
L 1294 2753 
L 1863 2753 
Q 2328 2753 2575 2939 
Q 2822 3125 2822 3475 
Q 2822 3834 2567 4026 
Q 2313 4219 1838 4219 
Q 1578 4219 1281 4162 
Q 984 4106 628 3988 
L 628 4550 
Q 988 4650 1302 4700 
Q 1616 4750 1894 4750 
Q 2613 4750 3031 4423 
Q 3450 4097 3450 3541 
Q 3450 3153 3228 2886 
Q 3006 2619 2597 2516 
z
" transform="scale(0.015625)"/>
       </defs>
       <use xlink:href="#DejaVuSans-32"/>
       <use xlink:href="#DejaVuSans-30" x="63.623047"/>
       <use xlink:href="#DejaVuSans-31" x="127.246094"/>
       <use xlink:href="#DejaVuSans-33" x="190.869141"/>
      </g>
     </g>
    </g>
    <g id="xtick_2">
     <g id="line2d_2">
      <g>
       <use xlink:href="#mca3308b3b4" x="325.227273" y="320.4" style="stroke: #000000; stroke-width: 0.8"/>
      </g>
     </g>
     <g id="text_2">
      <!-- 2014 -->
      <g transform="translate(312.502273 334.998438) scale(0.1 -0.1)">
       <defs>
        <path id="DejaVuSans-34" d="M 2419 4116 
L 825 1625 
L 2419 1625 
L 2419 4116 
z
M 2253 4666 
L 3047 4666 
L 3047 1625 
L 3713 1625 
L 3713 1100 
L 3047 1100 
L 3047 0 
L 2419 0 
L 2419 1100 
L 313 1100 
L 313 1709 
L 2253 4666 
z
" transform="scale(0.015625)"/>
       </defs>
       <use xlink:href="#DejaVuSans-32"/>
       <use xlink:href="#DejaVuSans-30" x="63.623047"/>
       <use xlink:href="#DejaVuSans-31" x="127.246094"/>
       <use xlink:href="#DejaVuSans-34" x="190.869141"/>
      </g>
     </g>
    </g>
    <g id="xtick_3">
     <g id="line2d_3">
      <g>
       <use xlink:href="#mca3308b3b4" x="477.409091" y="320.4" style="stroke: #000000; stroke-width: 0.8"/>
      </g>
     </g>
     <g id="text_3">
      <!-- 2015 -->
      <g transform="translate(464.684091 334.998438) scale(0.1 -0.1)">
       <defs>
        <path id="DejaVuSans-35" d="M 691 4666 
L 3169 4666 
L 3169 4134 
L 1269 4134 
L 1269 2991 
Q 1406 3038 1543 3061 
Q 1681 3084 1819 3084 
Q 2600 3084 3056 2656 
Q 3513 2228 3513 1497 
Q 3513 744 3044 326 
Q 2575 -91 1722 -91 
Q 1428 -91 1123 -41 
Q 819 9 494 109 
L 494 744 
Q 775 591 1075 516 
Q 1375 441 1709 441 
Q 2250 441 2565 725 
Q 2881 1009 2881 1497 
Q 2881 1984 2565 2268 
Q 2250 2553 1709 2553 
Q 1456 2553 1204 2497 
Q 953 2441 691 2322 
L 691 4666 
z
" transform="scale(0.015625)"/>
       </defs>
       <use xlink:href="#DejaVuSans-32"/>
       <use xlink:href="#DejaVuSans-30" x="63.623047"/>
       <use xlink:href="#DejaVuSans-31" x="127.246094"/>
       <use xlink:href="#DejaVuSans-35" x="190.869141"/>
      </g>
     </g>
    </g>
    <g id="xtick_4">
     <g id="line2d_4">
      <g>
       <use xlink:href="#mca3308b3b4" x="629.590909" y="320.4" style="stroke: #000000; stroke-width: 0.8"/>
      </g>
     </g>
     <g id="text_4">
      <!-- 2016 -->
      <g transform="translate(616.865909 334.998438) scale(0.1 -0.1)">
       <defs>
        <path id="DejaVuSans-36" d="M 2113 2584 
Q 1688 2584 1439 2293 
Q 1191 2003 1191 1497 
Q 1191 994 1439 701 
Q 1688 409 2113 409 
Q 2538 409 2786 701 
Q 3034 994 3034 1497 
Q 3034 2003 2786 2293 
Q 2538 2584 2113 2584 
z
M 3366 4563 
L 3366 3988 
Q 3128 4100 2886 4159 
Q 2644 4219 2406 4219 
Q 1781 4219 1451 3797 
Q 1122 3375 1075 2522 
Q 1259 2794 1537 2939 
Q 1816 3084 2150 3084 
Q 2853 3084 3261 2657 
Q 3669 2231 3669 1497 
Q 3669 778 3244 343 
Q 2819 -91 2113 -91 
Q 1303 -91 875 529 
Q 447 1150 447 2328 
Q 447 3434 972 4092 
Q 1497 4750 2381 4750 
Q 2619 4750 2861 4703 
Q 3103 4656 3366 4563 
z
" transform="scale(0.015625)"/>
       </defs>
       <use xlink:href="#DejaVuSans-32"/>
       <use xlink:href="#DejaVuSans-30" x="63.623047"/>
       <use xlink:href="#DejaVuSans-31" x="127.246094"/>
       <use xlink:href="#DejaVuSans-36" x="190.869141"/>
      </g>
     </g>
    </g>
    <g id="xtick_5">
     <g id="line2d_5">
      <g>
       <use xlink:href="#mca3308b3b4" x="782.189664" y="320.4" style="stroke: #000000; stroke-width: 0.8"/>
      </g>
     </g>
     <g id="text_5">
      <!-- 2017 -->
      <g transform="translate(769.464664 334.998438) scale(0.1 -0.1)">
       <defs>
        <path id="DejaVuSans-37" d="M 525 4666 
L 3525 4666 
L 3525 4397 
L 1831 0 
L 1172 0 
L 2766 4134 
L 525 4134 
L 525 4666 
z
" transform="scale(0.015625)"/>
       </defs>
       <use xlink:href="#DejaVuSans-32"/>
       <use xlink:href="#DejaVuSans-30" x="63.623047"/>
       <use xlink:href="#DejaVuSans-31" x="127.246094"/>
       <use xlink:href="#DejaVuSans-37" x="190.869141"/>
      </g>
     </g>
    </g>
    <g id="xtick_6">
     <g id="line2d_6">
      <g>
       <use xlink:href="#mca3308b3b4" x="934.371482" y="320.4" style="stroke: #000000; stroke-width: 0.8"/>
      </g>
     </g>
     <g id="text_6">
      <!-- 2018 -->
      <g transform="translate(921.646482 334.998438) scale(0.1 -0.1)">
       <defs>
        <path id="DejaVuSans-38" d="M 2034 2216 
Q 1584 2216 1326 1975 
Q 1069 1734 1069 1313 
Q 1069 891 1326 650 
Q 1584 409 2034 409 
Q 2484 409 2743 651 
Q 3003 894 3003 1313 
Q 3003 1734 2745 1975 
Q 2488 2216 2034 2216 
z
M 1403 2484 
Q 997 2584 770 2862 
Q 544 3141 544 3541 
Q 544 4100 942 4425 
Q 1341 4750 2034 4750 
Q 2731 4750 3128 4425 
Q 3525 4100 3525 3541 
Q 3525 3141 3298 2862 
Q 3072 2584 2669 2484 
Q 3125 2378 3379 2068 
Q 3634 1759 3634 1313 
Q 3634 634 3220 271 
Q 2806 -91 2034 -91 
Q 1263 -91 848 271 
Q 434 634 434 1313 
Q 434 1759 690 2068 
Q 947 2378 1403 2484 
z
M 1172 3481 
Q 1172 3119 1398 2916 
Q 1625 2713 2034 2713 
Q 2441 2713 2670 2916 
Q 2900 3119 2900 3481 
Q 2900 3844 2670 4047 
Q 2441 4250 2034 4250 
Q 1625 4250 1398 4047 
Q 1172 3844 1172 3481 
z
" transform="scale(0.015625)"/>
       </defs>
       <use xlink:href="#DejaVuSans-32"/>
       <use xlink:href="#DejaVuSans-30" x="63.623047"/>
       <use xlink:href="#DejaVuSans-31" x="127.246094"/>
       <use xlink:href="#DejaVuSans-38" x="190.869141"/>
      </g>
     </g>
    </g>
    <g id="text_7">
     <!-- Date -->
     <g transform="translate(541.549219 348.676562) scale(0.1 -0.1)">
      <defs>
       <path id="DejaVuSans-44" d="M 1259 4147 
L 1259 519 
L 2022 519 
Q 2988 519 3436 956 
Q 3884 1394 3884 2338 
Q 3884 3275 3436 3711 
Q 2988 4147 2022 4147 
L 1259 4147 
z
M 628 4666 
L 1925 4666 
Q 3281 4666 3915 4102 
Q 4550 3538 4550 2338 
Q 4550 1131 3912 565 
Q 3275 0 1925 0 
L 628 0 
L 628 4666 
z
" transform="scale(0.015625)"/>
       <path id="DejaVuSans-61" d="M 2194 1759 
Q 1497 1759 1228 1600 
Q 959 1441 959 1056 
Q 959 750 1161 570 
Q 1363 391 1709 391 
Q 2188 391 2477 730 
Q 2766 1069 2766 1631 
L 2766 1759 
L 2194 1759 
z
M 3341 1997 
L 3341 0 
L 2766 0 
L 2766 531 
Q 2569 213 2275 61 
Q 1981 -91 1556 -91 
Q 1019 -91 701 211 
Q 384 513 384 1019 
Q 384 1609 779 1909 
Q 1175 2209 1959 2209 
L 2766 2209 
L 2766 2266 
Q 2766 2663 2505 2880 
Q 2244 3097 1772 3097 
Q 1472 3097 1187 3025 
Q 903 2953 641 2809 
L 641 3341 
Q 956 3463 1253 3523 
Q 1550 3584 1831 3584 
Q 2591 3584 2966 3190 
Q 3341 2797 3341 1997 
z
" transform="scale(0.015625)"/>
       <path id="DejaVuSans-74" d="M 1172 4494 
L 1172 3500 
L 2356 3500 
L 2356 3053 
L 1172 3053 
L 1172 1153 
Q 1172 725 1289 603 
Q 1406 481 1766 481 
L 2356 481 
L 2356 0 
L 1766 0 
Q 1100 0 847 248 
Q 594 497 594 1153 
L 594 3053 
L 172 3053 
L 172 3500 
L 594 3500 
L 594 4494 
L 1172 4494 
z
" transform="scale(0.015625)"/>
       <path id="DejaVuSans-65" d="M 3597 1894 
L 3597 1613 
L 953 1613 
Q 991 1019 1311 708 
Q 1631 397 2203 397 
Q 2534 397 2845 478 
Q 3156 559 3463 722 
L 3463 178 
Q 3153 47 2828 -22 
Q 2503 -91 2169 -91 
Q 1331 -91 842 396 
Q 353 884 353 1716 
Q 353 2575 817 3079 
Q 1281 3584 2069 3584 
Q 2775 3584 3186 3129 
Q 3597 2675 3597 1894 
z
M 3022 2063 
Q 3016 2534 2758 2815 
Q 2500 3097 2075 3097 
Q 1594 3097 1305 2825 
Q 1016 2553 972 2059 
L 3022 2063 
z
" transform="scale(0.015625)"/>
      </defs>
      <use xlink:href="#DejaVuSans-44"/>
      <use xlink:href="#DejaVuSans-61" x="77.001953"/>
      <use xlink:href="#DejaVuSans-74" x="138.28125"/>
      <use xlink:href="#DejaVuSans-65" x="177.490234"/>
     </g>
    </g>
   </g>
   <g id="matplotlib.axis_2">
    <g id="ytick_1">
     <g id="line2d_7">
      <defs>
       <path id="m93a8a33c65" d="M 0 0 
L -3.5 0 
" style="stroke: #000000; stroke-width: 0.8"/>
      </defs>
      <g>
       <use xlink:href="#m93a8a33c65" x="135" y="299.821782" style="stroke: #000000; stroke-width: 0.8"/>
      </g>
     </g>
     <g id="text_8">
      <!-- 15000 -->
      <g transform="translate(96.1875 303.621001) scale(0.1 -0.1)">
       <use xlink:href="#DejaVuSans-31"/>
       <use xlink:href="#DejaVuSans-35" x="63.623047"/>
       <use xlink:href="#DejaVuSans-30" x="127.246094"/>
       <use xlink:href="#DejaVuSans-30" x="190.869141"/>
       <use xlink:href="#DejaVuSans-30" x="254.492188"/>
      </g>
     </g>
    </g>
    <g id="ytick_2">
     <g id="line2d_8">
      <g>
       <use xlink:href="#m93a8a33c65" x="135" y="259.930691" style="stroke: #000000; stroke-width: 0.8"/>
      </g>
     </g>
     <g id="text_9">
      <!-- 20000 -->
      <g transform="translate(96.1875 263.72991) scale(0.1 -0.1)">
       <use xlink:href="#DejaVuSans-32"/>
       <use xlink:href="#DejaVuSans-30" x="63.623047"/>
       <use xlink:href="#DejaVuSans-30" x="127.246094"/>
       <use xlink:href="#DejaVuSans-30" x="190.869141"/>
       <use xlink:href="#DejaVuSans-30" x="254.492188"/>
      </g>
     </g>
    </g>
    <g id="ytick_3">
     <g id="line2d_9">
      <g>
       <use xlink:href="#m93a8a33c65" x="135" y="220.0396" style="stroke: #000000; stroke-width: 0.8"/>
      </g>
     </g>
     <g id="text_10">
      <!-- 25000 -->
      <g transform="translate(96.1875 223.838819) scale(0.1 -0.1)">
       <use xlink:href="#DejaVuSans-32"/>
       <use xlink:href="#DejaVuSans-35" x="63.623047"/>
       <use xlink:href="#DejaVuSans-30" x="127.246094"/>
       <use xlink:href="#DejaVuSans-30" x="190.869141"/>
       <use xlink:href="#DejaVuSans-30" x="254.492188"/>
      </g>
     </g>
    </g>
    <g id="ytick_4">
     <g id="line2d_10">
      <g>
       <use xlink:href="#m93a8a33c65" x="135" y="180.148509" style="stroke: #000000; stroke-width: 0.8"/>
      </g>
     </g>
     <g id="text_11">
      <!-- 30000 -->
      <g transform="translate(96.1875 183.947728) scale(0.1 -0.1)">
       <use xlink:href="#DejaVuSans-33"/>
       <use xlink:href="#DejaVuSans-30" x="63.623047"/>
       <use xlink:href="#DejaVuSans-30" x="127.246094"/>
       <use xlink:href="#DejaVuSans-30" x="190.869141"/>
       <use xlink:href="#DejaVuSans-30" x="254.492188"/>
      </g>
     </g>
    </g>
    <g id="ytick_5">
     <g id="line2d_11">
      <g>
       <use xlink:href="#m93a8a33c65" x="135" y="140.257418" style="stroke: #000000; stroke-width: 0.8"/>
      </g>
     </g>
     <g id="text_12">
      <!-- 35000 -->
      <g transform="translate(96.1875 144.056637) scale(0.1 -0.1)">
       <use xlink:href="#DejaVuSans-33"/>
       <use xlink:href="#DejaVuSans-35" x="63.623047"/>
       <use xlink:href="#DejaVuSans-30" x="127.246094"/>
       <use xlink:href="#DejaVuSans-30" x="190.869141"/>
       <use xlink:href="#DejaVuSans-30" x="254.492188"/>
      </g>
     </g>
    </g>
    <g id="ytick_6">
     <g id="line2d_12">
      <g>
       <use xlink:href="#m93a8a33c65" x="135" y="100.366327" style="stroke: #000000; stroke-width: 0.8"/>
      </g>
     </g>
     <g id="text_13">
      <!-- 40000 -->
      <g transform="translate(96.1875 104.165546) scale(0.1 -0.1)">
       <use xlink:href="#DejaVuSans-34"/>
       <use xlink:href="#DejaVuSans-30" x="63.623047"/>
       <use xlink:href="#DejaVuSans-30" x="127.246094"/>
       <use xlink:href="#DejaVuSans-30" x="190.869141"/>
       <use xlink:href="#DejaVuSans-30" x="254.492188"/>
      </g>
     </g>
    </g>
    <g id="ytick_7">
     <g id="line2d_13">
      <g>
       <use xlink:href="#m93a8a33c65" x="135" y="60.475236" style="stroke: #000000; stroke-width: 0.8"/>
      </g>
     </g>
     <g id="text_14">
      <!-- 45000 -->
      <g transform="translate(96.1875 64.274455) scale(0.1 -0.1)">
       <use xlink:href="#DejaVuSans-34"/>
       <use xlink:href="#DejaVuSans-35" x="63.623047"/>
       <use xlink:href="#DejaVuSans-30" x="127.246094"/>
       <use xlink:href="#DejaVuSans-30" x="190.869141"/>
       <use xlink:href="#DejaVuSans-30" x="254.492188"/>
      </g>
     </g>
    </g>
    <g id="text_15">
     <!-- Sales -->
     <g transform="translate(90.107812 195.108594) rotate(-90) scale(0.1 -0.1)">
      <defs>
       <path id="DejaVuSans-53" d="M 3425 4513 
L 3425 3897 
Q 3066 4069 2747 4153 
Q 2428 4238 2131 4238 
Q 1616 4238 1336 4038 
Q 1056 3838 1056 3469 
Q 1056 3159 1242 3001 
Q 1428 2844 1947 2747 
L 2328 2669 
Q 3034 2534 3370 2195 
Q 3706 1856 3706 1288 
Q 3706 609 3251 259 
Q 2797 -91 1919 -91 
Q 1588 -91 1214 -16 
Q 841 59 441 206 
L 441 856 
Q 825 641 1194 531 
Q 1563 422 1919 422 
Q 2459 422 2753 634 
Q 3047 847 3047 1241 
Q 3047 1584 2836 1778 
Q 2625 1972 2144 2069 
L 1759 2144 
Q 1053 2284 737 2584 
Q 422 2884 422 3419 
Q 422 4038 858 4394 
Q 1294 4750 2059 4750 
Q 2388 4750 2728 4690 
Q 3069 4631 3425 4513 
z
" transform="scale(0.015625)"/>
       <path id="DejaVuSans-6c" d="M 603 4863 
L 1178 4863 
L 1178 0 
L 603 0 
L 603 4863 
z
" transform="scale(0.015625)"/>
       <path id="DejaVuSans-73" d="M 2834 3397 
L 2834 2853 
Q 2591 2978 2328 3040 
Q 2066 3103 1784 3103 
Q 1356 3103 1142 2972 
Q 928 2841 928 2578 
Q 928 2378 1081 2264 
Q 1234 2150 1697 2047 
L 1894 2003 
Q 2506 1872 2764 1633 
Q 3022 1394 3022 966 
Q 3022 478 2636 193 
Q 2250 -91 1575 -91 
Q 1294 -91 989 -36 
Q 684 19 347 128 
L 347 722 
Q 666 556 975 473 
Q 1284 391 1588 391 
Q 1994 391 2212 530 
Q 2431 669 2431 922 
Q 2431 1156 2273 1281 
Q 2116 1406 1581 1522 
L 1381 1569 
Q 847 1681 609 1914 
Q 372 2147 372 2553 
Q 372 3047 722 3315 
Q 1072 3584 1716 3584 
Q 2034 3584 2315 3537 
Q 2597 3491 2834 3397 
z
" transform="scale(0.015625)"/>
      </defs>
      <use xlink:href="#DejaVuSans-53"/>
      <use xlink:href="#DejaVuSans-61" x="63.476562"/>
      <use xlink:href="#DejaVuSans-6c" x="124.755859"/>
      <use xlink:href="#DejaVuSans-65" x="152.539062"/>
      <use xlink:href="#DejaVuSans-73" x="214.0625"/>
     </g>
    </g>
   </g>
   <g id="line2d_14">
    <path d="M 173.045455 292.52969 
L 173.462391 292.44193 
L 173.879328 286.242854 
L 174.296264 277.809878 
L 174.7132 273.150598 
L 175.130137 265.132489 
L 175.547073 306.786766 
L 175.96401 293.590793 
L 176.380946 291.037764 
L 177.214819 278.91885 
L 178.048692 262.603394 
L 178.465629 307.8 
L 178.882565 293.662597 
L 179.299502 293.447185 
L 180.133375 278.551852 
L 180.967248 263.967669 
L 181.384184 307.624479 
L 181.801121 292.808928 
L 182.218057 293.630684 
L 182.634994 286.474223 
L 183.05193 277.155664 
L 183.885803 262.611372 
L 184.30274 305.757576 
L 184.719676 291.979193 
L 185.136613 295.401849 
L 185.553549 284.902514 
L 185.970486 263.098043 
L 186.804359 248.370253 
L 187.221295 297.340556 
L 187.638232 282.764351 
L 188.055168 281.392098 
L 188.472105 274.259571 
L 189.305978 256.883011 
L 189.722914 248.705338 
L 190.139851 297.747445 
L 190.556787 281.894726 
L 190.973724 280.346951 
L 192.641469 249.351573 
L 193.058406 298.840461 
L 193.475342 280.953296 
L 193.892279 283.57813 
L 194.726152 264.765491 
L 195.560025 249.574964 
L 195.976961 296.821972 
L 196.393898 281.862813 
L 196.810834 282.684569 
L 197.227771 273.972355 
L 197.644707 237.998569 
L 198.47858 221.603331 
L 198.895517 277.355119 
L 199.312453 258.271221 
L 199.72939 257.401596 
L 200.146326 251.832799 
L 200.980199 230.227784 
L 201.397136 221.140594 
L 201.814072 280.506516 
L 202.231009 261.318901 
L 202.647945 257.026619 
L 203.064882 249.551029 
L 204.315691 220.231077 
L 204.732628 279.660824 
L 205.149564 259.818996 
L 205.566501 259.986538 
L 205.983437 251.856734 
L 206.81731 230.171937 
L 207.234247 220.48638 
L 207.651183 277.809878 
L 208.06812 259.268499 
L 208.485056 258.909479 
L 208.901993 247.803799 
L 209.318929 241.469094 
L 209.735866 227.866232 
L 210.152802 218.308326 
L 210.569738 258.957348 
L 210.986675 237.671462 
L 211.403611 237.839005 
L 212.237484 214.303261 
L 213.071357 191.557361 
L 213.488294 259.364237 
L 213.90523 235.5333 
L 214.322167 236.29123 
L 214.739103 221.443766 
L 215.15604 213.832546 
L 215.989913 189.235699 
L 216.406849 260.592883 
L 216.823786 234.520066 
L 217.240722 236.602381 
L 218.908468 188.2464 
L 219.325405 256.212841 
L 219.742341 233.690331 
L 220.159278 234.328589 
L 220.576214 225.504679 
L 220.993151 212.540075 
L 221.410087 204.912898 
L 221.827024 189.674501 
L 222.24396 259.850909 
L 222.660897 235.501387 
L 223.49477 211.997556 
L 224.745579 174.882885 
L 225.162516 249.27977 
L 225.579452 223.797341 
L 225.996389 223.031432 
L 226.830262 200.189793 
L 227.664134 177.180612 
L 228.081071 250.763718 
L 228.498007 223.462255 
L 228.914944 224.20423 
L 230.58269 176.055683 
L 230.999626 248.186754 
L 231.416563 224.052644 
L 231.833499 221.778851 
L 233.084309 184.999265 
L 233.501245 170.82995 
L 233.918182 247.548496 
L 234.335118 221.930438 
L 234.752055 221.212398 
L 235.585928 198.091522 
L 236.002864 174.101019 
L 236.419801 158.407864 
L 236.836737 238.740543 
L 237.253674 213.824568 
L 237.67061 211.35132 
L 238.087547 196.455987 
L 239.338356 161.311936 
L 239.755293 237.535832 
L 240.172229 209.189223 
L 240.589166 211.143887 
L 241.006102 200.221706 
L 242.256912 159.429076 
L 242.673848 240.240448 
L 243.090785 209.715785 
L 243.507721 211.830013 
L 243.924658 196.902767 
L 244.341594 186.794365 
L 245.175467 158.216387 
L 245.592403 238.245894 
L 246.00934 214.12774 
L 246.426276 209.580156 
L 246.843213 195.953359 
L 247.260149 187.608143 
L 248.094022 160.035421 
L 248.510959 229.98046 
L 248.927895 200.277553 
L 249.344832 199.647274 
L 251.012578 145.586868 
L 251.429514 227.387539 
L 251.846451 199.886621 
L 252.263387 200.676464 
L 252.680324 183.850402 
L 253.09726 171.747445 
L 253.931133 144.573634 
L 254.34807 228.767771 
L 254.765006 199.423884 
L 255.181943 201.937023 
L 256.849689 144.741176 
L 257.266625 229.310289 
L 257.683562 202.136478 
L 258.100498 198.897322 
L 258.934371 171.667663 
L 259.768244 143.927398 
L 260.185181 230.140024 
L 260.602117 199.503666 
L 261.019054 202.208282 
L 261.43599 213.832546 
L 262.269863 185.525828 
L 262.6868 174.683429 
L 263.103736 246.934173 
L 263.520672 225.002052 
L 263.937609 226.98065 
L 264.771482 200.556791 
L 265.188418 189.419198 
L 265.605355 173.861673 
L 266.022291 247.708061 
L 266.439228 224.96216 
L 266.856164 224.579206 
L 268.106974 185.581675 
L 268.52391 175.337643 
L 268.940847 250.683936 
L 269.357783 222.576673 
L 269.77472 223.669689 
L 270.191656 209.907263 
L 270.608593 201.306743 
L 271.025529 185.781131 
L 271.442466 176.662027 
L 271.859402 249.630811 
L 272.276339 223.725537 
L 272.693275 223.438321 
L 273.110212 212.540075 
L 273.527148 197.892066 
L 273.944085 187.320927 
L 274.361021 187.456557 
L 274.777958 254.904413 
L 275.194894 233.530767 
L 275.611831 235.349801 
L 277.279577 188.988375 
L 277.696513 257.305857 
L 278.11345 231.783537 
L 278.530386 234.623783 
L 280.198132 188.788919 
L 280.615068 255.079934 
L 281.032005 238.014525 
L 281.448941 233.411094 
L 281.865878 220.677857 
L 282.282814 211.415146 
L 283.116687 188.254379 
L 283.533624 257.904223 
L 283.95056 236.011993 
L 284.367497 234.879086 
L 285.618306 203.867752 
L 286.035243 188.637333 
L 286.452179 257.377661 
L 286.869116 246.846413 
L 287.286052 245.322573 
L 288.119925 225.807852 
L 288.953798 204.067207 
L 289.370735 267.382347 
L 289.787671 246.423567 
L 290.204608 247.89156 
L 290.621544 232.589337 
L 291.038481 225.385006 
L 291.455417 215.882948 
L 291.872354 202.567302 
L 292.28929 268.243994 
L 292.706227 246.264003 
L 293.123163 246.319851 
L 294.790909 203.931577 
L 295.207846 268.036561 
L 295.624782 245.952853 
L 296.041719 246.702805 
L 297.709465 204.027316 
L 298.126401 267.438194 
L 298.543337 246.048591 
L 298.960274 244.788033 
L 299.37721 235.796581 
L 299.794147 213.106528 
L 300.211083 203.06993 
L 300.62802 189.036244 
L 301.044956 257.146293 
L 301.461893 234.958868 
L 301.878829 235.597125 
L 302.295766 225.385006 
L 303.129639 200.165858 
L 303.546575 190.105325 
L 303.963512 256.492079 
L 304.380448 234.775369 
L 304.797385 235.700842 
L 305.214321 226.031242 
L 306.465131 189.283569 
L 306.882067 258.207396 
L 307.299004 234.448262 
L 307.71594 234.376458 
L 308.132877 225.073856 
L 308.549813 211.638536 
L 308.96675 202.016805 
L 309.383686 188.757006 
L 309.800623 258.119635 
L 310.217559 235.84445 
L 310.634496 234.775369 
L 311.051432 225.289267 
L 311.885305 202.024783 
L 312.719178 295.712999 
L 313.136115 280.80171 
L 313.553051 280.163452 
L 313.969988 273.756943 
L 314.803861 255.805952 
L 315.220797 249.933983 
L 315.637733 298.625049 
L 316.05467 281.551662 
L 316.471606 280.211321 
L 316.888543 272.368733 
L 317.305479 267.143 
L 317.722416 257.904223 
L 318.139352 245.553942 
L 318.556289 297.54799 
L 318.973225 282.955829 
L 319.390162 282.692547 
L 320.224035 267.964757 
L 321.057908 247.708061 
L 321.474844 297.468207 
L 321.891781 281.846856 
L 322.308717 280.642145 
L 323.976463 252.383296 
L 324.3934 299.191503 
L 324.810336 283.30687 
L 325.227273 279.908149 
L 325.644209 268.291863 
L 326.061146 262.116723 
L 326.478082 251.78493 
L 326.895019 244.883771 
L 327.311955 295.377914 
L 327.728892 279.110327 
L 328.145828 278.38431 
L 328.562765 267.980713 
L 329.813574 244.931641 
L 330.230511 294.811461 
L 330.647447 278.041246 
L 331.064384 278.759286 
L 331.48132 268.634927 
L 332.315193 254.130526 
L 332.73213 246.024656 
L 333.149066 294.643918 
L 333.566002 279.812411 
L 333.982939 277.522662 
L 334.399875 269.91942 
L 335.233748 251.186564 
L 335.650685 244.796011 
L 336.067621 294.452441 
L 336.484558 277.458836 
L 336.901494 279.317761 
L 337.735367 260.193972 
L 338.152304 238.046438 
L 338.56924 224.898335 
L 338.986177 282.41331 
L 339.403113 266.097853 
L 339.82005 262.292243 
L 340.653923 247.149585 
L 341.070859 234.743456 
L 341.487796 226.055176 
L 341.904732 284.623276 
L 342.321669 265.156424 
L 342.738605 265.563313 
L 344.406351 226.805129 
L 344.823288 283.235066 
L 345.240224 264.909099 
L 345.657161 262.499677 
L 346.90797 237.192769 
L 347.324907 225.775939 
L 347.741843 281.136795 
L 348.15878 264.27882 
L 348.575716 262.643285 
L 348.992653 255.702235 
L 349.409589 244.724207 
L 349.826526 204.90492 
L 350.243462 192.259444 
L 350.660399 260.106212 
L 351.077335 236.283252 
L 351.494271 236.131666 
L 351.911208 226.493978 
L 352.328144 213.617134 
L 352.745081 204.849072 
L 353.162017 191.286101 
L 353.578954 259.292433 
L 353.99589 237.559767 
L 354.412827 238.221959 
L 355.2467 214.03998 
L 356.080573 191.349927 
L 356.497509 259.348281 
L 356.914446 238.014525 
L 357.331382 238.772456 
L 358.999128 191.477579 
L 359.416065 259.731235 
L 359.833001 239.825581 
L 360.249938 236.809814 
L 361.917684 191.940315 
L 362.33462 258.351004 
L 362.751557 213.712873 
L 363.168493 212.595922 
L 363.58543 196.527791 
L 364.002366 185.956652 
L 364.836239 155.854834 
L 365.253176 234.711543 
L 365.670112 210.625302 
L 366.087049 210.864649 
L 367.754795 159.165795 
L 368.171731 236.793858 
L 368.588667 210.848692 
L 369.005604 211.072083 
L 369.42254 196.160793 
L 369.839477 186.914038 
L 370.67335 159.72427 
L 371.090286 238.676718 
L 371.507223 210.003001 
L 371.924159 212.364554 
L 373.174969 172.672918 
L 373.591905 157.17124 
L 374.008842 237.049161 
L 374.425778 211.470993 
L 374.842715 210.298195 
L 375.259651 183.99401 
L 376.093524 155.55964 
L 376.510461 142.140277 
L 376.927397 226.198784 
L 377.344334 196.966593 
L 377.76127 200.094054 
L 378.595143 171.516077 
L 379.429016 143.416792 
L 379.845953 224.403685 
L 380.262889 196.687355 
L 380.679826 197.078288 
L 381.513699 170.877819 
L 381.930635 153.820389 
L 382.347572 141.884974 
L 382.764508 227.467321 
L 383.181445 199.376015 
L 383.598381 197.804306 
L 384.432254 173.710087 
L 384.849191 154.75384 
L 385.266127 142.722687 
L 385.683064 225.241398 
L 386.1 199.511644 
L 386.516936 199.407928 
L 386.933873 186.618844 
L 387.350809 169.712999 
L 387.767746 157.586108 
L 388.184682 125.856734 
L 388.601619 215.452124 
L 389.018555 188.525638 
L 389.435492 183.754663 
L 390.269365 157.235066 
L 390.686301 144.406091 
L 391.103238 127.516203 
L 391.520174 215.507972 
L 391.937111 185.653479 
L 392.354047 186.874147 
L 393.18792 154.865535 
L 394.021793 121.452758 
L 394.43873 214.62239 
L 394.855666 186.291737 
L 395.272603 185.916761 
L 396.940349 126.94975 
L 397.357285 213.202267 
L 397.774222 189.283569 
L 398.191158 185.980586 
L 399.025031 154.785753 
L 399.858904 124.612132 
L 400.275841 215.643602 
L 400.692777 173.199481 
L 401.109714 171.436295 
L 402.77746 109.070563 
L 403.194396 202.870474 
L 403.611333 171.252796 
L 404.028269 174.954689 
L 404.862142 140.664307 
L 405.696015 110.235383 
L 406.112951 205.032571 
L 406.529888 171.835205 
L 406.946824 174.356322 
L 408.61457 108.791325 
L 409.031507 202.335934 
L 409.448443 173.646261 
L 409.86538 175.473273 
L 411.533126 106.685076 
L 411.950062 204.553878 
L 412.366999 171.867118 
L 412.783935 170.806015 
L 413.200872 156.852112 
L 413.617808 171.907009 
L 414.034745 155.8309 
L 414.451681 144.916697 
L 414.868618 227.092345 
L 415.285554 199.009017 
L 415.702491 198.171304 
L 416.9533 156.532983 
L 417.370237 140.010093 
L 417.787173 226.318458 
L 418.20411 198.753714 
L 418.621046 199.567492 
L 420.288792 140.297309 
L 420.705729 226.214741 
L 421.122665 198.697866 
L 421.539601 198.809561 
L 423.207347 142.571101 
L 423.624284 227.938036 
L 424.04122 196.878832 
L 424.458157 198.530324 
L 426.125903 142.938099 
L 426.542839 239.713886 
L 426.959776 211.901817 
L 427.376712 211.391211 
L 429.044458 157.155284 
L 429.461395 237.033205 
L 429.878331 211.12793 
L 430.295268 211.598645 
L 431.129141 186.90606 
L 431.963014 157.179219 
L 432.37995 235.565212 
L 432.796887 210.593389 
L 433.213823 211.766188 
L 434.881569 158.288191 
L 435.298506 236.251339 
L 435.715442 211.255582 
L 436.132379 214.183588 
L 436.549315 197.389438 
L 436.966252 187.017755 
L 437.383188 170.69432 
L 437.800125 160.075312 
L 438.217061 237.176813 
L 438.633998 212.635813 
L 439.050934 225.688178 
L 439.46787 210.266283 
L 440.71868 177.156677 
L 441.135616 248.122928 
L 441.552553 227.610929 
L 441.969489 223.924992 
L 443.220299 190.703692 
L 443.637235 176.366833 
L 444.054172 248.976597 
L 444.471108 224.42762 
L 444.888045 227.523168 
L 445.304981 216.210055 
L 446.138854 186.140151 
L 446.555791 175.209992 
L 446.972727 249.495181 
L 447.389664 223.581929 
L 447.8066 223.159083 
L 449.474346 176.342899 
L 449.891283 248.825011 
L 450.308219 224.164339 
L 450.725156 224.435598 
L 451.559029 199.591427 
L 451.975965 170.933667 
L 452.392902 160.522092 
L 452.809838 237.256595 
L 453.226775 212.779421 
L 453.643711 213.226201 
L 454.060648 196.463965 
L 454.477584 186.443323 
L 455.311457 160.657722 
L 455.728394 239.737821 
L 456.14533 210.401912 
L 456.562267 211.024213 
L 458.230012 159.867878 
L 458.646949 239.003824 
L 459.063885 213.744786 
L 459.480822 210.066827 
L 459.897758 199.719078 
L 461.148568 158.623276 
L 461.565504 236.977357 
L 461.982441 211.367277 
L 462.399377 211.247603 
L 462.816314 199.854708 
L 464.067123 158.942405 
L 464.48406 283.945128 
L 464.900996 264.246907 
L 465.317933 266.225505 
L 466.568742 235.277997 
L 466.985679 229.437941 
L 467.402615 282.971785 
L 467.819552 262.140657 
L 468.236488 264.494232 
L 469.904234 225.640309 
L 470.321171 285.229621 
L 470.738107 263.879909 
L 471.155044 262.435851 
L 472.405853 238.229937 
L 472.82279 226.637586 
L 473.239726 282.58883 
L 473.656663 264.597948 
L 474.073599 265.962224 
L 474.907472 245.713506 
L 475.741345 225.504679 
L 476.158281 284.439777 
L 476.575218 264.853251 
L 476.992154 265.722877 
L 477.409091 266.121788 
L 477.826027 254.792718 
L 478.6599 237.759222 
L 479.076837 289.162882 
L 479.493773 271.291674 
L 479.91071 273.533553 
L 481.578456 236.458773 
L 481.995392 290.487267 
L 482.412329 271.642715 
L 482.829265 271.371456 
L 484.497011 237.352333 
L 484.913948 289.138948 
L 485.330884 273.41388 
L 485.747821 272.496384 
L 486.99863 246.248047 
L 487.415567 235.668929 
L 487.832503 290.279833 
L 488.24944 272.145343 
L 488.666376 272.137365 
L 489.083313 265.611182 
L 489.917186 244.468904 
L 490.334122 219.640689 
L 490.751059 277.769987 
L 491.167995 259.459976 
L 491.584932 258.622263 
L 492.418804 238.373545 
L 493.252677 216.832356 
L 493.669614 277.107795 
L 494.08655 256.332514 
L 494.503487 257.074489 
L 494.920423 249.064358 
L 496.171233 219.082214 
L 496.588169 278.687482 
L 497.005106 257.226075 
L 497.422042 257.265966 
L 498.255915 237.360312 
L 499.089788 217.159463 
L 499.506725 277.426923 
L 499.923661 257.999962 
L 500.340598 257.720724 
L 501.591407 227.754537 
L 502.008344 182.103172 
L 502.42528 254.553372 
L 502.842217 228.919357 
L 503.259153 229.533679 
L 504.093026 207.130843 
L 504.926899 183.523295 
L 505.343836 254.002875 
L 505.760772 230.570848 
L 506.177709 229.541658 
L 507.845455 183.571164 
L 508.262391 252.654556 
L 508.679328 230.20385 
L 509.096264 230.754347 
L 509.5132 220.382663 
L 509.930137 202.495498 
L 510.347073 193.871044 
L 510.76401 181.018135 
L 511.180946 253.348661 
L 511.597883 228.791705 
L 512.014819 231.153258 
L 512.848692 207.23456 
L 513.682565 181.943608 
L 514.099502 251.673235 
L 515.350311 187.528361 
L 516.601121 147.94842 
L 517.018057 229.7092 
L 517.434994 202.319977 
L 517.85193 206.644171 
L 518.268867 187.065624 
L 518.685803 176.143443 
L 519.519676 146.927208 
L 519.936613 231.09741 
L 520.353549 203.724144 
L 520.770486 205.750611 
L 522.021295 159.237599 
L 522.438232 146.145343 
L 522.855168 229.924612 
L 523.272105 204.474096 
L 523.689041 202.232217 
L 525.356787 146.552232 
L 525.773724 230.698499 
L 526.19066 203.045995 
L 526.607597 202.958235 
L 527.024533 187.93525 
L 527.441469 159.221642 
L 528.275342 133.17276 
L 528.692279 220.095447 
L 529.109215 189.762262 
L 529.526152 188.310226 
L 529.943088 176.127487 
L 530.776961 144.836915 
L 531.193898 130.603774 
L 531.610834 220.414576 
L 532.027771 190.153194 
L 532.444707 188.629355 
L 534.112453 128.050744 
L 534.52939 219.114127 
L 534.946326 187.057646 
L 535.363263 187.169341 
L 535.780199 172.481441 
L 536.197136 162.540581 
L 537.031009 130.404318 
L 537.447945 218.603521 
L 537.864882 187.121472 
L 538.281818 188.693181 
L 539.949564 130.508035 
L 540.366501 209.02168 
L 540.783437 173.031938 
L 541.200374 175.80038 
L 542.86812 111.376268 
L 543.285056 208.199924 
L 543.701993 174.731299 
L 544.118929 176.502463 
L 545.786675 110.299209 
L 546.203611 208.774356 
L 546.620548 174.428126 
L 547.037484 175.959944 
L 548.70523 113.107541 
L 549.122167 209.500374 
L 549.539103 175.114253 
L 549.95604 174.850972 
L 550.372976 160.705591 
L 550.789913 142.228038 
L 551.623786 112.237916 
L 552.040722 207.665383 
L 552.457659 174.029215 
L 552.874595 164.040486 
L 554.542341 95.012942 
L 554.959278 195.003951 
L 555.376214 162.460799 
L 555.793151 159.979573 
L 556.210087 147.541531 
L 557.460897 94.239055 
L 557.877833 193.424264 
L 558.29477 160.322637 
L 558.711706 160.027443 
L 559.545579 128.058722 
L 560.379452 95.51557 
L 560.796389 192.849832 
L 561.213325 162.883645 
L 561.630262 159.939682 
L 563.298007 96.113937 
L 563.714944 195.554448 
L 564.13188 161.822542 
L 564.548817 161.216197 
L 565.38269 127.197075 
L 565.799626 142.180168 
L 566.216563 127.492269 
L 566.633499 214.726107 
L 567.050436 190.767517 
L 567.467372 189.889913 
L 568.301245 158.463712 
L 569.135118 128.298069 
L 569.552055 219.154018 
L 569.968991 188.174596 
L 570.385928 189.921826 
L 572.053674 128.928348 
L 572.47061 216.18612 
L 572.887547 190.137238 
L 573.304483 186.754474 
L 573.72142 173.000025 
L 574.138356 154.450668 
L 574.555293 143.329032 
L 574.972229 128.848566 
L 575.389166 218.260457 
L 575.806102 190.815387 
L 576.223039 188.461812 
L 577.473848 142.555145 
L 577.890785 126.654556 
L 578.307721 216.313772 
L 578.724658 202.926322 
L 579.141594 201.091332 
L 579.975467 171.747445 
L 580.392403 161.272045 
L 580.80934 145.227848 
L 581.226276 228.528424 
L 581.643213 203.221516 
L 582.060149 199.830773 
L 583.310959 163.8889 
L 583.727895 145.012436 
L 584.144832 229.948547 
L 584.561768 199.503666 
L 584.978705 199.455797 
L 586.646451 144.908719 
L 587.063387 227.227974 
L 587.480324 202.742823 
L 587.89726 202.519433 
L 588.731133 173.630305 
L 589.565006 146.129386 
L 589.981943 229.222529 
L 590.398879 200.556791 
L 590.815816 201.131223 
L 591.232752 201.394504 
L 592.483562 165.069676 
L 592.900498 240.663294 
L 593.317435 215.244691 
L 593.734371 215.037257 
L 595.402117 162.700146 
L 595.819054 241.493029 
L 596.23599 215.308516 
L 596.652927 216.313772 
L 598.320672 163.346381 
L 598.737609 242.362654 
L 599.154545 216.050491 
L 599.571482 215.005344 
L 600.405355 190.895169 
L 601.239228 163.497967 
L 601.656164 241.501007 
L 602.073101 215.73934 
L 602.490037 215.029279 
L 602.906974 206.317065 
L 603.32391 189.195808 
L 603.740847 177.643348 
L 604.157783 146.69584 
L 604.57472 229.501767 
L 604.991656 201.897132 
L 605.408593 200.564769 
L 605.825529 185.573697 
L 606.659402 161.455544 
L 607.076339 146.408624 
L 607.493275 231.440474 
L 607.910212 203.708187 
L 608.327148 201.418439 
L 609.994894 145.068283 
L 610.411831 228.249186 
L 610.828767 200.891876 
L 611.245704 201.881175 
L 612.91345 146.895295 
L 613.330386 230.052264 
L 613.747323 200.341379 
L 614.164259 202.136478 
L 614.998132 172.465485 
L 615.415068 161.439587 
L 615.832005 146.903274 
L 616.248941 231.017628 
L 616.665878 258.997239 
L 617.082814 256.492079 
L 618.75056 215.563819 
L 619.167497 278.11305 
L 619.584433 256.300602 
L 620.00137 256.180928 
L 620.418306 249.902071 
L 621.252179 227.834319 
L 621.669116 218.332261 
L 622.086052 275.280783 
L 622.502989 255.343215 
L 622.919925 254.609219 
L 623.336862 247.700082 
L 624.170735 230.56287 
L 624.587671 215.811144 
L 625.004608 275.623846 
L 625.421544 258.071766 
L 625.838481 258.00794 
L 627.08929 226.565782 
L 627.506227 218.850845 
L 627.923163 277.458836 
L 628.3401 256.228798 
L 628.757036 256.603774 
L 629.173973 247.987298 
L 629.590909 241.875983 
L 630.424782 222.393174 
L 630.841719 280.330995 
L 631.258655 260.840208 
L 631.675592 260.138124 
L 633.343337 222.847933 
L 633.760274 278.20081 
L 634.17721 261.310923 
L 634.594147 260.951903 
L 635.42802 241.381334 
L 636.261893 222.568695 
L 636.678829 281.136795 
L 637.095766 260.329602 
L 637.512702 259.515823 
L 638.346575 242.968999 
L 639.180448 222.345305 
L 639.597385 280.267169 
L 640.014321 260.848186 
L 640.431258 259.021174 
L 640.848194 252.327449 
L 642.099004 222.297436 
L 642.51594 266.776002 
L 642.932877 245.410334 
L 643.349813 247.17352 
L 644.183686 225.839764 
L 644.600623 214.071893 
L 645.017559 206.125587 
L 645.434496 265.97818 
L 645.851432 244.684316 
L 646.268369 247.97932 
L 646.685305 234.783347 
L 647.936115 205.511264 
L 648.353051 267.81317 
L 648.769988 245.809245 
L 649.186924 246.136352 
L 649.603861 237.041183 
L 650.020797 224.29199 
L 650.437733 216.241968 
L 650.85467 202.056696 
L 651.271606 266.720154 
L 651.688543 246.375698 
L 652.105479 248.545773 
L 652.522416 234.344545 
L 653.356289 213.313962 
L 653.773225 202.048718 
L 654.190162 267.494042 
L 654.607098 216.784487 
L 655.024035 218.076958 
L 655.440971 200.477009 
L 656.274844 177.771 
L 656.691781 165.883455 
L 657.108717 242.689761 
L 657.525654 215.324473 
L 657.94259 215.51595 
L 659.610336 166.697233 
L 660.027273 240.639359 
L 660.444209 216.122295 
L 660.861146 217.869524 
L 661.278082 201.330678 
L 662.528892 165.827607 
L 662.945828 241.157943 
L 663.362765 214.255392 
L 663.779701 216.241968 
L 665.447447 164.590983 
L 665.864384 240.447882 
L 666.28132 216.425467 
L 666.698257 215.898905 
L 667.115193 203.389058 
L 667.53213 155.998442 
L 667.949066 145.570911 
L 668.366002 125.122738 
L 668.782939 216.824378 
L 669.199875 185.150852 
L 669.616812 186.738517 
L 670.450685 155.8309 
L 671.284558 125.553562 
L 671.701494 214.478782 
L 672.118431 185.852935 
L 672.535367 186.299715 
L 674.203113 125.019021 
L 674.62005 215.930817 
L 675.036986 184.520572 
L 675.453923 186.626822 
L 676.704732 143.081707 
L 677.121669 125.162629 
L 677.538605 215.731362 
L 677.955542 184.672159 
L 678.372478 187.089559 
L 679.623288 139.515444 
L 680.040224 108.895042 
L 680.457161 202.120522 
L 680.874097 170.710277 
L 681.291034 169.050807 
L 681.70797 156.381397 
L 682.95878 105.751624 
L 683.375716 202.160413 
L 683.792653 172.872374 
L 684.209589 172.258051 
L 684.626526 152.55983 
L 685.877335 108.496131 
L 686.294271 200.923789 
L 686.711208 171.707554 
L 687.128144 170.69432 
L 687.545081 155.806965 
L 687.962017 136.403938 
L 688.378954 125.976407 
L 688.79589 107.147812 
L 689.212827 201.753524 
L 689.629763 173.351067 
L 690.0467 172.21816 
L 691.714446 105.504299 
L 692.131382 204.865029 
L 692.548319 172.393681 
L 694.633001 87.784677 
L 695.049938 186.85819 
L 695.466874 155.679314 
L 695.883811 156.197898 
L 697.551557 88.199544 
L 697.968493 190.400519 
L 698.38543 155.615488 
L 698.802366 158.463712 
L 699.636239 122.489926 
L 700.470112 89.396277 
L 700.887049 191.772773 
L 701.303985 157.945128 
L 701.720922 154.841601 
L 702.971731 107.897765 
L 703.388667 86.540075 
L 703.805604 193.368416 
L 704.22254 158.120648 
L 704.639477 158.216387 
L 705.056413 141.111087 
L 705.47335 105.647907 
L 705.890286 90.888204 
L 706.307223 71.955892 
L 706.724159 179.350687 
L 707.141096 145.012436 
L 707.558032 145.706541 
L 707.974969 123.487203 
L 708.391905 108.631761 
L 709.225778 69.41084 
L 709.642715 177.515697 
L 710.059651 144.286418 
L 710.476588 140.018071 
L 710.893524 126.806142 
L 712.144334 70.567682 
L 712.56127 178.201824 
L 712.978207 141.988691 
L 713.395143 143.69603 
L 714.229016 106.437751 
L 714.645953 94.885291 
L 715.062889 73.415906 
L 715.479826 179.60599 
L 715.896762 144.27844 
L 716.313699 143.743899 
L 717.981445 70.862876 
L 718.398381 206.38089 
L 718.815318 173.82976 
L 719.232254 174.739277 
L 720.9 111.655506 
L 721.316936 205.447439 
L 721.733873 174.747255 
L 722.150809 174.491952 
L 722.984682 142.08443 
L 723.818555 109.078541 
L 724.235492 204.809181 
L 724.652428 175.146166 
L 725.069365 172.010726 
L 725.486301 160.011486 
L 726.320174 125.505692 
L 726.737111 109.357779 
L 727.154047 204.202837 
L 727.570984 174.061128 
L 727.98792 172.281986 
L 729.655666 112.517153 
L 730.072603 205.000659 
L 730.489539 173.789869 
L 730.906476 169.912455 
L 731.323412 170.638473 
L 732.157285 146.081517 
L 732.574222 127.404508 
L 732.991158 218.300348 
L 733.408095 188.836788 
L 733.825031 189.147939 
L 734.241968 175.704641 
L 735.075841 144.27844 
L 735.492777 131.728703 
L 735.909714 218.324283 
L 736.32665 188.733072 
L 736.743587 190.033521 
L 738.411333 128.704958 
L 738.828269 216.122295 
L 739.245205 189.54685 
L 739.662142 187.983119 
L 741.329888 129.438954 
L 741.746824 219.058279 
L 742.163761 189.570785 
L 742.580697 186.914038 
L 742.997634 174.651516 
L 743.41457 158.463712 
L 743.831507 163.705401 
L 744.248443 147.557487 
L 744.66538 228.871487 
L 745.082316 203.444906 
L 745.499253 204.490053 
L 746.333126 177.316241 
L 746.750062 160.897068 
L 747.166999 149.193022 
L 747.583935 232.469664 
L 748.000872 201.242918 
L 748.417808 204.729399 
L 749.251681 176.997113 
L 750.085554 146.624036 
L 750.502491 231.296866 
L 750.919427 205.902197 
L 751.336364 201.378547 
L 753.00411 148.770177 
L 753.421046 230.961781 
L 753.837983 200.756246 
L 754.254919 206.261217 
L 755.088792 173.869651 
L 755.922665 150.453581 
L 756.339601 230.929868 
L 756.756538 188.940505 
L 757.173474 187.432622 
L 757.590411 175.489229 
L 758.84122 128.274134 
L 759.258157 220.957095 
L 759.675093 188.054923 
L 760.09203 188.110771 
L 760.508966 174.332388 
L 760.925903 156.812221 
L 761.342839 144.102919 
L 761.759776 126.718382 
L 762.176712 217.757829 
L 762.593649 188.182575 
L 763.010585 188.07088 
L 764.678331 128.840588 
L 765.095268 218.499804 
L 765.512204 190.623909 
L 765.929141 187.815577 
L 767.596887 129.430976 
L 768.013823 219.177952 
L 768.43076 188.110771 
L 768.847696 189.299525 
L 769.264633 238.110264 
L 770.098506 217.773786 
L 770.515442 205.630938 
L 770.932379 269.608269 
L 771.349315 251.42591 
L 771.766252 249.040423 
L 773.017061 214.343152 
L 773.433998 206.87554 
L 773.850934 268.299842 
L 774.26787 246.718761 
L 774.684807 246.240068 
L 775.935616 213.409701 
L 776.352553 206.309086 
L 776.769489 269.767834 
L 777.186426 247.644235 
L 777.603362 248.713316 
L 778.437235 223.909036 
L 779.271108 205.431482 
L 779.688045 268.810448 
L 780.104981 249.415399 
L 780.521918 247.763908 
L 781.355791 227.108301 
L 781.772727 216.54514 
L 782.189664 217.462635 
L 782.6066 276.908339 
L 783.023537 253.962984 
L 783.440473 255.063978 
L 785.108219 216.409511 
L 785.525156 276.844513 
L 785.942092 256.53197 
L 786.359029 255.646388 
L 786.775965 247.237346 
L 787.192902 233.762135 
L 788.026775 216.297815 
L 788.443711 277.21949 
L 788.860648 255.598518 
L 789.277584 253.970962 
L 789.694521 248.130906 
L 790.528394 222.54476 
L 790.94533 215.117039 
L 791.362267 276.63708 
L 791.779203 255.14376 
L 792.196139 255.981473 
L 792.613076 246.790565 
L 793.030012 234.751434 
L 793.446949 226.430153 
L 793.863885 215.619667 
L 794.280822 275.950953 
L 794.697758 254.242221 
L 795.114695 238.644805 
L 795.531631 228.999139 
L 796.365504 206.133566 
L 796.782441 198.290977 
L 797.199377 261.661964 
L 797.616314 239.689951 
L 798.03325 240.806902 
L 798.450187 230.371392 
L 799.28406 203.149712 
L 799.700996 194.860343 
L 800.117933 261.542291 
L 800.534869 238.644805 
L 800.951806 239.993124 
L 802.202615 207.258494 
L 802.619552 194.261977 
L 803.036488 261.701855 
L 803.453425 237.751244 
L 803.870361 239.666017 
L 805.538107 194.397607 
L 805.955044 262.84274 
L 806.37198 240.583512 
L 806.788917 209.827481 
L 807.62279 183.890293 
L 808.039726 172.090508 
L 808.456663 155.623466 
L 808.873599 236.610359 
L 809.290535 210.258304 
L 809.707472 206.747888 
L 810.124408 198.737757 
L 811.375218 153.421478 
L 811.792154 234.687608 
L 812.209091 207.90473 
L 812.626027 211.431102 
L 813.876837 169.712999 
L 814.293773 158.136605 
L 814.71071 237.065117 
L 815.127646 208.439271 
L 815.544583 208.646704 
L 815.961519 198.0995 
L 817.212329 155.623466 
L 817.629265 236.147622 
L 818.046202 208.941898 
L 818.463138 210.984322 
L 818.880075 195.586361 
L 819.297011 184.879592 
L 819.713948 133.17276 
L 820.130884 117.495561 
L 820.547821 209.109441 
L 820.964757 180.555398 
L 821.381694 182.821212 
L 822.632503 130.117103 
L 823.04944 118.931641 
L 823.466376 208.168011 
L 823.883313 180.284139 
L 824.300249 180.084683 
L 825.967995 118.987488 
L 826.384932 209.628025 
L 826.801868 179.550142 
L 827.218804 179.47036 
L 827.635741 161.176306 
L 828.469614 133.268499 
L 828.88655 116.235003 
L 829.303487 210.713063 
L 829.720423 179.302818 
L 830.13736 180.252226 
L 831.388169 133.651453 
L 831.805106 118.030102 
L 832.222042 197.205939 
L 832.638979 161.447565 
L 833.055915 163.226708 
L 834.723661 97.741493 
L 835.140598 196.280466 
L 835.557534 163.505946 
L 835.974471 161.96615 
L 836.808344 130.476122 
L 837.642217 98.076578 
L 838.059153 197.389438 
L 838.47609 161.639043 
L 838.893026 164.686722 
L 840.560772 95.475679 
L 840.977709 196.902767 
L 841.394645 164.136225 
L 841.811582 163.35436 
L 842.645455 126.957728 
L 843.062391 114.14471 
L 843.479328 96.736238 
L 843.896264 197.556981 
L 844.3132 166.378104 
L 844.730137 162.045932 
L 845.147073 132.805762 
L 846.397883 77.859773 
L 846.814819 185.102982 
L 847.231756 146.743709 
L 847.648692 147.022947 
L 849.316438 78.753334 
L 849.733375 186.531083 
L 850.150311 148.363288 
L 850.567248 146.496384 
L 851.401121 114.415969 
L 852.234994 78.976724 
L 852.65193 184.057836 
L 853.068867 147.908529 
L 853.485803 147.988311 
L 853.90274 133.44402 
L 855.153549 77.843817 
L 855.570486 183.619034 
L 855.987422 148.115963 
L 856.404359 149.911062 
L 856.821295 129.678301 
L 857.238232 115.373355 
L 857.655168 73.806838 
L 858.072105 55.8 
L 858.489041 170.989514 
L 858.905978 134.943925 
L 859.322914 135.36677 
L 860.156787 95.691091 
L 860.573724 81.306364 
L 860.99066 59.629545 
L 861.407597 171.228861 
L 861.824533 131.78455 
L 862.241469 132.933414 
L 862.658406 115.652593 
L 863.075342 93.672602 
L 863.492279 78.865029 
L 863.909215 58.592376 
L 864.326152 170.231584 
L 864.743088 135.00775 
L 865.160025 133.475932 
L 866.827771 57.563186 
L 867.244707 170.431039 
L 867.661644 133.882822 
L 868.07858 133.069043 
L 868.495517 113.825581 
L 868.912453 100.478022 
L 869.746326 57.132362 
L 870.163263 167.901944 
L 870.580199 163.585728 
L 870.997136 163.202773 
L 871.831009 131.968049 
L 872.664882 100.430153 
L 873.081818 195.506579 
L 873.498755 163.234686 
L 873.915691 164.590983 
L 874.749564 131.585095 
L 875.583437 98.746749 
L 876.000374 199.431862 
L 876.41731 167.072209 
L 876.834247 164.575027 
L 878.501993 94.510315 
L 878.918929 199.344102 
L 879.335866 163.57775 
L 879.752802 165.923346 
L 881.420548 96.528804 
L 881.837484 197.24583 
L 882.254421 164.184094 
L 882.671357 165.085633 
L 883.088294 147.852682 
L 883.50523 151.570531 
L 883.922167 132.989261 
L 884.339103 120.335807 
L 884.75604 210.23437 
L 885.172976 182.079238 
L 885.589913 180.124574 
L 887.257659 114.72712 
L 887.674595 209.500374 
L 888.091532 180.403812 
L 888.508468 178.010346 
L 890.176214 117.351953 
L 890.593151 208.957855 
L 891.010087 179.486317 
L 891.427024 176.949243 
L 892.677833 134.042386 
L 893.09477 118.628468 
L 893.511706 207.649427 
L 893.928643 179.103362 
L 894.345579 177.380067 
L 894.762516 165.149459 
L 895.596389 133.898778 
L 896.013325 139.738834 
L 896.430262 223.438321 
L 896.847198 192.028076 
L 897.264134 193.871044 
L 898.098007 166.840841 
L 898.93188 137.002305 
L 899.348817 221.076768 
L 899.765753 194.780561 
L 900.18269 192.746115 
L 901.850436 136.762958 
L 902.267372 220.26299 
L 902.684309 192.028076 
L 903.101245 193.232787 
L 904.352055 148.267549 
L 904.768991 134.664687 
L 905.185928 219.880035 
L 905.602864 193.894979 
L 906.019801 192.506769 
L 907.27061 150.820579 
L 907.687547 135.063598 
L 908.104483 223.430343 
L 908.52142 193.304591 
L 908.938356 179.278883 
L 909.772229 145.953866 
L 910.606102 115.907896 
L 911.023039 207.035104 
L 911.439975 177.037004 
L 911.856912 178.66456 
L 912.690785 147.086773 
L 913.107721 134.856164 
L 913.524658 115.748332 
L 913.941594 208.806269 
L 914.358531 177.388045 
L 914.775467 180.156487 
L 916.026276 131.609029 
L 916.443213 118.684316 
L 916.860149 208.247793 
L 917.277086 175.872184 
L 917.694022 180.922396 
L 918.944832 130.851099 
L 919.361768 115.030292 
L 919.778705 210.721041 
L 920.195641 177.731109 
L 920.612578 178.808168 
L 921.029514 162.604407 
L 921.446451 218.188653 
L 921.863387 209.636003 
L 922.280324 194.421541 
L 922.69726 262.994327 
L 923.114197 242.298829 
L 923.531133 241.868005 
L 925.198879 194.908212 
L 925.615816 262.204483 
L 926.032752 242.418502 
L 926.449689 239.091585 
L 927.283562 218.459913 
L 928.117435 199.224429 
L 928.534371 262.994327 
L 928.951308 240.192579 
L 929.368244 241.149965 
L 930.202117 218.100893 
L 930.619054 209.628025 
L 931.03599 198.705844 
L 931.452927 264.94899 
L 931.869863 239.466561 
L 932.2868 242.282872 
L 933.954545 197.325613 
L 933.954545 197.325613 
" clip-path="url(#p2c263915c6)" style="fill: none; stroke: #0000ff; stroke-width: 1.5; stroke-linecap: square"/>
   </g>
   <g id="line2d_15">
    <path d="M 929.368244 236.730032 
L 929.785181 226.916824 
L 930.202117 216.226012 
L 930.619054 203.548623 
L 931.03599 195.889533 
L 931.452927 263.058152 
L 931.869863 239.354866 
L 932.2868 237.248616 
L 932.703736 227.267866 
L 933.120672 219.241778 
L 933.537609 203.580536 
L 933.954545 193.296612 
" clip-path="url(#p2c263915c6)" style="fill: none; stroke: #ff0000; stroke-width: 1.5; stroke-linecap: square"/>
   </g>
   <g id="patch_3">
    <path d="M 135 320.4 
L 135 43.2 
" style="fill: none; stroke: #000000; stroke-width: 0.8; stroke-linejoin: miter; stroke-linecap: square"/>
   </g>
   <g id="patch_4">
    <path d="M 972 320.4 
L 972 43.2 
" style="fill: none; stroke: #000000; stroke-width: 0.8; stroke-linejoin: miter; stroke-linecap: square"/>
   </g>
   <g id="patch_5">
    <path d="M 135 320.4 
L 972 320.4 
" style="fill: none; stroke: #000000; stroke-width: 0.8; stroke-linejoin: miter; stroke-linecap: square"/>
   </g>
   <g id="patch_6">
    <path d="M 135 43.2 
L 972 43.2 
" style="fill: none; stroke: #000000; stroke-width: 0.8; stroke-linejoin: miter; stroke-linecap: square"/>
   </g>
   <g id="text_16">
    <!-- LSTM Sales Forecasting Prediction -->
    <g transform="translate(451.350937 37.2) scale(0.12 -0.12)">
     <defs>
      <path id="DejaVuSans-4c" d="M 628 4666 
L 1259 4666 
L 1259 531 
L 3531 531 
L 3531 0 
L 628 0 
L 628 4666 
z
" transform="scale(0.015625)"/>
      <path id="DejaVuSans-54" d="M -19 4666 
L 3928 4666 
L 3928 4134 
L 2272 4134 
L 2272 0 
L 1638 0 
L 1638 4134 
L -19 4134 
L -19 4666 
z
" transform="scale(0.015625)"/>
      <path id="DejaVuSans-4d" d="M 628 4666 
L 1569 4666 
L 2759 1491 
L 3956 4666 
L 4897 4666 
L 4897 0 
L 4281 0 
L 4281 4097 
L 3078 897 
L 2444 897 
L 1241 4097 
L 1241 0 
L 628 0 
L 628 4666 
z
" transform="scale(0.015625)"/>
      <path id="DejaVuSans-20" transform="scale(0.015625)"/>
      <path id="DejaVuSans-46" d="M 628 4666 
L 3309 4666 
L 3309 4134 
L 1259 4134 
L 1259 2759 
L 3109 2759 
L 3109 2228 
L 1259 2228 
L 1259 0 
L 628 0 
L 628 4666 
z
" transform="scale(0.015625)"/>
      <path id="DejaVuSans-6f" d="M 1959 3097 
Q 1497 3097 1228 2736 
Q 959 2375 959 1747 
Q 959 1119 1226 758 
Q 1494 397 1959 397 
Q 2419 397 2687 759 
Q 2956 1122 2956 1747 
Q 2956 2369 2687 2733 
Q 2419 3097 1959 3097 
z
M 1959 3584 
Q 2709 3584 3137 3096 
Q 3566 2609 3566 1747 
Q 3566 888 3137 398 
Q 2709 -91 1959 -91 
Q 1206 -91 779 398 
Q 353 888 353 1747 
Q 353 2609 779 3096 
Q 1206 3584 1959 3584 
z
" transform="scale(0.015625)"/>
      <path id="DejaVuSans-72" d="M 2631 2963 
Q 2534 3019 2420 3045 
Q 2306 3072 2169 3072 
Q 1681 3072 1420 2755 
Q 1159 2438 1159 1844 
L 1159 0 
L 581 0 
L 581 3500 
L 1159 3500 
L 1159 2956 
Q 1341 3275 1631 3429 
Q 1922 3584 2338 3584 
Q 2397 3584 2469 3576 
Q 2541 3569 2628 3553 
L 2631 2963 
z
" transform="scale(0.015625)"/>
      <path id="DejaVuSans-63" d="M 3122 3366 
L 3122 2828 
Q 2878 2963 2633 3030 
Q 2388 3097 2138 3097 
Q 1578 3097 1268 2742 
Q 959 2388 959 1747 
Q 959 1106 1268 751 
Q 1578 397 2138 397 
Q 2388 397 2633 464 
Q 2878 531 3122 666 
L 3122 134 
Q 2881 22 2623 -34 
Q 2366 -91 2075 -91 
Q 1284 -91 818 406 
Q 353 903 353 1747 
Q 353 2603 823 3093 
Q 1294 3584 2113 3584 
Q 2378 3584 2631 3529 
Q 2884 3475 3122 3366 
z
" transform="scale(0.015625)"/>
      <path id="DejaVuSans-69" d="M 603 3500 
L 1178 3500 
L 1178 0 
L 603 0 
L 603 3500 
z
M 603 4863 
L 1178 4863 
L 1178 4134 
L 603 4134 
L 603 4863 
z
" transform="scale(0.015625)"/>
      <path id="DejaVuSans-6e" d="M 3513 2113 
L 3513 0 
L 2938 0 
L 2938 2094 
Q 2938 2591 2744 2837 
Q 2550 3084 2163 3084 
Q 1697 3084 1428 2787 
Q 1159 2491 1159 1978 
L 1159 0 
L 581 0 
L 581 3500 
L 1159 3500 
L 1159 2956 
Q 1366 3272 1645 3428 
Q 1925 3584 2291 3584 
Q 2894 3584 3203 3211 
Q 3513 2838 3513 2113 
z
" transform="scale(0.015625)"/>
      <path id="DejaVuSans-67" d="M 2906 1791 
Q 2906 2416 2648 2759 
Q 2391 3103 1925 3103 
Q 1463 3103 1205 2759 
Q 947 2416 947 1791 
Q 947 1169 1205 825 
Q 1463 481 1925 481 
Q 2391 481 2648 825 
Q 2906 1169 2906 1791 
z
M 3481 434 
Q 3481 -459 3084 -895 
Q 2688 -1331 1869 -1331 
Q 1566 -1331 1297 -1286 
Q 1028 -1241 775 -1147 
L 775 -588 
Q 1028 -725 1275 -790 
Q 1522 -856 1778 -856 
Q 2344 -856 2625 -561 
Q 2906 -266 2906 331 
L 2906 616 
Q 2728 306 2450 153 
Q 2172 0 1784 0 
Q 1141 0 747 490 
Q 353 981 353 1791 
Q 353 2603 747 3093 
Q 1141 3584 1784 3584 
Q 2172 3584 2450 3431 
Q 2728 3278 2906 2969 
L 2906 3500 
L 3481 3500 
L 3481 434 
z
" transform="scale(0.015625)"/>
      <path id="DejaVuSans-50" d="M 1259 4147 
L 1259 2394 
L 2053 2394 
Q 2494 2394 2734 2622 
Q 2975 2850 2975 3272 
Q 2975 3691 2734 3919 
Q 2494 4147 2053 4147 
L 1259 4147 
z
M 628 4666 
L 2053 4666 
Q 2838 4666 3239 4311 
Q 3641 3956 3641 3272 
Q 3641 2581 3239 2228 
Q 2838 1875 2053 1875 
L 1259 1875 
L 1259 0 
L 628 0 
L 628 4666 
z
" transform="scale(0.015625)"/>
      <path id="DejaVuSans-64" d="M 2906 2969 
L 2906 4863 
L 3481 4863 
L 3481 0 
L 2906 0 
L 2906 525 
Q 2725 213 2448 61 
Q 2172 -91 1784 -91 
Q 1150 -91 751 415 
Q 353 922 353 1747 
Q 353 2572 751 3078 
Q 1150 3584 1784 3584 
Q 2172 3584 2448 3432 
Q 2725 3281 2906 2969 
z
M 947 1747 
Q 947 1113 1208 752 
Q 1469 391 1925 391 
Q 2381 391 2643 752 
Q 2906 1113 2906 1747 
Q 2906 2381 2643 2742 
Q 2381 3103 1925 3103 
Q 1469 3103 1208 2742 
Q 947 2381 947 1747 
z
" transform="scale(0.015625)"/>
     </defs>
     <use xlink:href="#DejaVuSans-4c"/>
     <use xlink:href="#DejaVuSans-53" x="55.712891"/>
     <use xlink:href="#DejaVuSans-54" x="119.189453"/>
     <use xlink:href="#DejaVuSans-4d" x="180.273438"/>
     <use xlink:href="#DejaVuSans-20" x="266.552734"/>
     <use xlink:href="#DejaVuSans-53" x="298.339844"/>
     <use xlink:href="#DejaVuSans-61" x="361.816406"/>
     <use xlink:href="#DejaVuSans-6c" x="423.095703"/>
     <use xlink:href="#DejaVuSans-65" x="450.878906"/>
     <use xlink:href="#DejaVuSans-73" x="512.402344"/>
     <use xlink:href="#DejaVuSans-20" x="564.501953"/>
     <use xlink:href="#DejaVuSans-46" x="596.289062"/>
     <use xlink:href="#DejaVuSans-6f" x="650.183594"/>
     <use xlink:href="#DejaVuSans-72" x="711.365234"/>
     <use xlink:href="#DejaVuSans-65" x="750.228516"/>
     <use xlink:href="#DejaVuSans-63" x="811.751953"/>
     <use xlink:href="#DejaVuSans-61" x="866.732422"/>
     <use xlink:href="#DejaVuSans-73" x="928.011719"/>
     <use xlink:href="#DejaVuSans-74" x="980.111328"/>
     <use xlink:href="#DejaVuSans-69" x="1019.320312"/>
     <use xlink:href="#DejaVuSans-6e" x="1047.103516"/>
     <use xlink:href="#DejaVuSans-67" x="1110.482422"/>
     <use xlink:href="#DejaVuSans-20" x="1173.958984"/>
     <use xlink:href="#DejaVuSans-50" x="1205.746094"/>
     <use xlink:href="#DejaVuSans-72" x="1264.298828"/>
     <use xlink:href="#DejaVuSans-65" x="1303.162109"/>
     <use xlink:href="#DejaVuSans-64" x="1364.685547"/>
     <use xlink:href="#DejaVuSans-69" x="1428.162109"/>
     <use xlink:href="#DejaVuSans-63" x="1455.945312"/>
     <use xlink:href="#DejaVuSans-74" x="1510.925781"/>
     <use xlink:href="#DejaVuSans-69" x="1550.134766"/>
     <use xlink:href="#DejaVuSans-6f" x="1577.917969"/>
     <use xlink:href="#DejaVuSans-6e" x="1639.099609"/>
    </g>
   </g>
   <g id="legend_1">
    <g id="patch_7">
     <path d="M 886.059375 80.55625 
L 965 80.55625 
Q 967 80.55625 967 78.55625 
L 967 50.2 
Q 967 48.2 965 48.2 
L 886.059375 48.2 
Q 884.059375 48.2 884.059375 50.2 
L 884.059375 78.55625 
Q 884.059375 80.55625 886.059375 80.55625 
z
" style="fill: #ffffff; opacity: 0.8; stroke: #cccccc; stroke-linejoin: miter"/>
    </g>
    <g id="line2d_16">
     <path d="M 888.059375 56.298437 
L 898.059375 56.298437 
L 908.059375 56.298437 
" style="fill: none; stroke: #0000ff; stroke-width: 1.5; stroke-linecap: square"/>
    </g>
    <g id="text_17">
     <!-- Original -->
     <g transform="translate(916.059375 59.798437) scale(0.1 -0.1)">
      <defs>
       <path id="DejaVuSans-4f" d="M 2522 4238 
Q 1834 4238 1429 3725 
Q 1025 3213 1025 2328 
Q 1025 1447 1429 934 
Q 1834 422 2522 422 
Q 3209 422 3611 934 
Q 4013 1447 4013 2328 
Q 4013 3213 3611 3725 
Q 3209 4238 2522 4238 
z
M 2522 4750 
Q 3503 4750 4090 4092 
Q 4678 3434 4678 2328 
Q 4678 1225 4090 567 
Q 3503 -91 2522 -91 
Q 1538 -91 948 565 
Q 359 1222 359 2328 
Q 359 3434 948 4092 
Q 1538 4750 2522 4750 
z
" transform="scale(0.015625)"/>
      </defs>
      <use xlink:href="#DejaVuSans-4f"/>
      <use xlink:href="#DejaVuSans-72" x="78.710938"/>
      <use xlink:href="#DejaVuSans-69" x="119.824219"/>
      <use xlink:href="#DejaVuSans-67" x="147.607422"/>
      <use xlink:href="#DejaVuSans-69" x="211.083984"/>
      <use xlink:href="#DejaVuSans-6e" x="238.867188"/>
      <use xlink:href="#DejaVuSans-61" x="302.246094"/>
      <use xlink:href="#DejaVuSans-6c" x="363.525391"/>
     </g>
    </g>
    <g id="line2d_17">
     <path d="M 888.059375 70.976562 
L 898.059375 70.976562 
L 908.059375 70.976562 
" style="fill: none; stroke: #ff0000; stroke-width: 1.5; stroke-linecap: square"/>
    </g>
    <g id="text_18">
     <!-- Predicted -->
     <g transform="translate(916.059375 74.476562) scale(0.1 -0.1)">
      <use xlink:href="#DejaVuSans-50"/>
      <use xlink:href="#DejaVuSans-72" x="58.552734"/>
      <use xlink:href="#DejaVuSans-65" x="97.416016"/>
      <use xlink:href="#DejaVuSans-64" x="158.939453"/>
      <use xlink:href="#DejaVuSans-69" x="222.416016"/>
      <use xlink:href="#DejaVuSans-63" x="250.199219"/>
      <use xlink:href="#DejaVuSans-74" x="305.179688"/>
      <use xlink:href="#DejaVuSans-65" x="344.388672"/>
      <use xlink:href="#DejaVuSans-64" x="405.912109"/>
     </g>
    </g>
   </g>
  </g>
 </g>
 <defs>
  <clipPath id="p2c263915c6">
   <rect x="135" y="43.2" width="837" height="277.2"/>
  </clipPath>
 </defs>
</svg>
